<mxfile host="app.diagrams.net" modified="2021-06-01T11:34:25.036Z" agent="5.0 (Windows NT 10.0; WOW64) AppleWebKit/537.36 (KHTML, like Gecko) Chrome/91.0.4472.77 Safari/537.36" etag="c7MvgUtgLLu3bz83u0oO" version="14.7.3" type="github" pages="4">
  <diagram id="UGGQM63yXZ7QnVepaOta" name="国税总局迭代二项目部署架构图2">
    <mxGraphModel dx="1038" dy="1660" grid="1" gridSize="10" guides="1" tooltips="1" connect="1" arrows="1" fold="1" page="1" pageScale="1" pageWidth="827" pageHeight="1169" math="0" shadow="0">
      <root>
        <mxCell id="jzKrXzuOXjJ3qbqfuDsG-0" />
        <mxCell id="jzKrXzuOXjJ3qbqfuDsG-1" parent="jzKrXzuOXjJ3qbqfuDsG-0" />
        <mxCell id="jzKrXzuOXjJ3qbqfuDsG-10" value="" style="rounded=1;whiteSpace=wrap;html=1;fillColor=#d0cee2;strokeColor=#56517e;fontStyle=1" vertex="1" parent="jzKrXzuOXjJ3qbqfuDsG-1">
          <mxGeometry x="190" y="-10" width="650" height="180" as="geometry" />
        </mxCell>
        <mxCell id="jzKrXzuOXjJ3qbqfuDsG-7" value="&lt;span&gt;管理门户&lt;/span&gt;" style="rounded=0;whiteSpace=wrap;html=1;fontStyle=1;fillColor=#d5e8d4;strokeColor=#82b366;" vertex="1" parent="jzKrXzuOXjJ3qbqfuDsG-1">
          <mxGeometry x="430" y="60" width="150" height="30" as="geometry" />
        </mxCell>
        <mxCell id="jzKrXzuOXjJ3qbqfuDsG-8" value="&lt;span style=&quot;&quot;&gt;Logstash&lt;/span&gt;" style="rounded=0;whiteSpace=wrap;html=1;fontStyle=1;fillColor=#d5e8d4;strokeColor=#82b366;" vertex="1" parent="jzKrXzuOXjJ3qbqfuDsG-1">
          <mxGeometry x="430" y="120" width="150" height="30" as="geometry" />
        </mxCell>
        <mxCell id="jzKrXzuOXjJ3qbqfuDsG-11" value="&lt;span&gt;ES-Master&lt;/span&gt;" style="rounded=0;whiteSpace=wrap;html=1;fillColor=#1ba1e2;strokeColor=#006EAF;fontColor=#ffffff;fontStyle=1" vertex="1" parent="jzKrXzuOXjJ3qbqfuDsG-1">
          <mxGeometry x="250" y="60" width="150" height="30" as="geometry" />
        </mxCell>
        <mxCell id="jzKrXzuOXjJ3qbqfuDsG-12" value="&lt;span style=&quot;&quot;&gt;Mariadb&lt;/span&gt;" style="rounded=0;whiteSpace=wrap;html=1;fontStyle=1;fillColor=#d5e8d4;strokeColor=#82b366;" vertex="1" parent="jzKrXzuOXjJ3qbqfuDsG-1">
          <mxGeometry x="610" y="120" width="150" height="30" as="geometry" />
        </mxCell>
        <mxCell id="jzKrXzuOXjJ3qbqfuDsG-13" value="物理机1" style="text;html=1;strokeColor=none;fillColor=none;align=center;verticalAlign=middle;whiteSpace=wrap;rounded=0;fontStyle=1" vertex="1" parent="jzKrXzuOXjJ3qbqfuDsG-1">
          <mxGeometry x="250" y="10" width="50" height="20" as="geometry" />
        </mxCell>
        <mxCell id="jzKrXzuOXjJ3qbqfuDsG-19" value="" style="rounded=1;whiteSpace=wrap;html=1;fillColor=#b1ddf0;strokeColor=#10739e;fontStyle=1" vertex="1" parent="jzKrXzuOXjJ3qbqfuDsG-1">
          <mxGeometry x="190" y="220" width="210" height="100" as="geometry" />
        </mxCell>
        <mxCell id="jzKrXzuOXjJ3qbqfuDsG-20" value="&lt;span&gt;ES-Data Node-01&lt;/span&gt;" style="rounded=0;whiteSpace=wrap;html=1;fontStyle=1;fillColor=#fad9d5;strokeColor=#ae4132;" vertex="1" parent="jzKrXzuOXjJ3qbqfuDsG-1">
          <mxGeometry x="220" y="270" width="150" height="30" as="geometry" />
        </mxCell>
        <mxCell id="jzKrXzuOXjJ3qbqfuDsG-21" value="物理机4" style="text;html=1;strokeColor=none;fillColor=none;align=center;verticalAlign=middle;whiteSpace=wrap;rounded=0;fontStyle=1" vertex="1" parent="jzKrXzuOXjJ3qbqfuDsG-1">
          <mxGeometry x="210" y="230" width="50" height="20" as="geometry" />
        </mxCell>
        <mxCell id="jzKrXzuOXjJ3qbqfuDsG-22" value="" style="rounded=1;whiteSpace=wrap;html=1;fillColor=#b1ddf0;strokeColor=#10739e;fontStyle=1" vertex="1" parent="jzKrXzuOXjJ3qbqfuDsG-1">
          <mxGeometry x="414" y="220" width="210" height="100" as="geometry" />
        </mxCell>
        <mxCell id="jzKrXzuOXjJ3qbqfuDsG-23" value="&lt;span&gt;ES-Data Node-02&lt;/span&gt;" style="rounded=0;whiteSpace=wrap;html=1;fontStyle=1;fillColor=#fad9d5;strokeColor=#ae4132;" vertex="1" parent="jzKrXzuOXjJ3qbqfuDsG-1">
          <mxGeometry x="444" y="270" width="140" height="30" as="geometry" />
        </mxCell>
        <mxCell id="jzKrXzuOXjJ3qbqfuDsG-24" value="物理机5" style="text;html=1;strokeColor=none;fillColor=none;align=center;verticalAlign=middle;whiteSpace=wrap;rounded=0;fontStyle=1" vertex="1" parent="jzKrXzuOXjJ3qbqfuDsG-1">
          <mxGeometry x="434" y="230" width="50" height="20" as="geometry" />
        </mxCell>
        <mxCell id="jzKrXzuOXjJ3qbqfuDsG-25" value="" style="rounded=1;whiteSpace=wrap;html=1;fillColor=#b1ddf0;strokeColor=#10739e;fontStyle=1" vertex="1" parent="jzKrXzuOXjJ3qbqfuDsG-1">
          <mxGeometry x="640" y="220" width="210" height="100" as="geometry" />
        </mxCell>
        <mxCell id="jzKrXzuOXjJ3qbqfuDsG-26" value="&lt;span&gt;ES-Data Node-03&lt;/span&gt;" style="rounded=0;whiteSpace=wrap;html=1;fontStyle=1;fillColor=#fad9d5;strokeColor=#ae4132;" vertex="1" parent="jzKrXzuOXjJ3qbqfuDsG-1">
          <mxGeometry x="670" y="270" width="150" height="30" as="geometry" />
        </mxCell>
        <mxCell id="jzKrXzuOXjJ3qbqfuDsG-27" value="物理机6" style="text;html=1;strokeColor=none;fillColor=none;align=center;verticalAlign=middle;whiteSpace=wrap;rounded=0;fontStyle=1" vertex="1" parent="jzKrXzuOXjJ3qbqfuDsG-1">
          <mxGeometry x="660" y="230" width="50" height="20" as="geometry" />
        </mxCell>
        <mxCell id="jzKrXzuOXjJ3qbqfuDsG-28" value="8核 * 32G&amp;nbsp; &amp;nbsp;6T" style="text;html=1;strokeColor=none;fillColor=none;align=center;verticalAlign=middle;whiteSpace=wrap;rounded=0;fontStyle=1" vertex="1" parent="jzKrXzuOXjJ3qbqfuDsG-1">
          <mxGeometry x="280" y="230" width="90" height="20" as="geometry" />
        </mxCell>
        <mxCell id="jzKrXzuOXjJ3qbqfuDsG-29" value="8核 * 32G&amp;nbsp; &amp;nbsp;6T" style="text;html=1;align=center;verticalAlign=middle;whiteSpace=wrap;rounded=0;fontStyle=1" vertex="1" parent="jzKrXzuOXjJ3qbqfuDsG-1">
          <mxGeometry x="494" y="230" width="90" height="20" as="geometry" />
        </mxCell>
        <mxCell id="jzKrXzuOXjJ3qbqfuDsG-30" value="8核 * 32G&amp;nbsp; &amp;nbsp;6T" style="text;html=1;strokeColor=none;fillColor=none;align=center;verticalAlign=middle;whiteSpace=wrap;rounded=0;fontStyle=1" vertex="1" parent="jzKrXzuOXjJ3qbqfuDsG-1">
          <mxGeometry x="730" y="230" width="90" height="20" as="geometry" />
        </mxCell>
        <mxCell id="jzKrXzuOXjJ3qbqfuDsG-32" value="8核 * 16G&amp;nbsp; &amp;nbsp;300G" style="text;html=1;strokeColor=none;fillColor=none;align=center;verticalAlign=middle;whiteSpace=wrap;rounded=0;fontStyle=1" vertex="1" parent="jzKrXzuOXjJ3qbqfuDsG-1">
          <mxGeometry x="320" y="10" width="100" height="20" as="geometry" />
        </mxCell>
        <mxCell id="jzKrXzuOXjJ3qbqfuDsG-34" value="迭代二项目部署架构图" style="text;html=1;strokeColor=none;fillColor=none;align=center;verticalAlign=middle;whiteSpace=wrap;rounded=0;fontSize=16;fontStyle=1" vertex="1" parent="jzKrXzuOXjJ3qbqfuDsG-1">
          <mxGeometry x="130" y="-70" width="230" height="20" as="geometry" />
        </mxCell>
        <mxCell id="Au7M4zguxFnIjD2qjDky-0" value="&lt;span&gt;stash同步程序&lt;/span&gt;" style="rounded=0;whiteSpace=wrap;html=1;fontStyle=1;fillColor=#d5e8d4;strokeColor=#82b366;" vertex="1" parent="jzKrXzuOXjJ3qbqfuDsG-1">
          <mxGeometry x="610" y="60" width="150" height="30" as="geometry" />
        </mxCell>
      </root>
    </mxGraphModel>
  </diagram>
  <diagram id="Z8zOMWjy-eNqPPEbi3ij" name="国税总局迭代二项目部署架构图">
    <mxGraphModel dx="1038" dy="1660" grid="1" gridSize="10" guides="1" tooltips="1" connect="1" arrows="1" fold="1" page="1" pageScale="1" pageWidth="827" pageHeight="1169" math="0" shadow="0">
      <root>
        <mxCell id="vXHMGScjWEvyBzevYoSc-0" />
        <mxCell id="vXHMGScjWEvyBzevYoSc-1" parent="vXHMGScjWEvyBzevYoSc-0" />
        <mxCell id="eRStXw8ammm37wl4E13g-17" value="" style="rounded=0;whiteSpace=wrap;html=1;" vertex="1" parent="vXHMGScjWEvyBzevYoSc-1">
          <mxGeometry x="90" y="-90" width="850" height="480" as="geometry" />
        </mxCell>
        <mxCell id="vXHMGScjWEvyBzevYoSc-3" value="" style="rounded=1;whiteSpace=wrap;html=1;fillColor=#d0cee2;strokeColor=#56517e;fontStyle=1" vertex="1" parent="vXHMGScjWEvyBzevYoSc-1">
          <mxGeometry x="130" y="-10" width="220" height="200" as="geometry" />
        </mxCell>
        <mxCell id="vXHMGScjWEvyBzevYoSc-2" value="&lt;span&gt;ES-Master-01&lt;/span&gt;" style="rounded=0;whiteSpace=wrap;html=1;fillColor=#1ba1e2;strokeColor=#006EAF;fontColor=#ffffff;fontStyle=1" vertex="1" parent="vXHMGScjWEvyBzevYoSc-1">
          <mxGeometry x="160" y="60" width="150" height="30" as="geometry" />
        </mxCell>
        <mxCell id="CJzHl18bVtILbSn8nhYy-0" value="&lt;span style=&quot;&quot;&gt;Logstash&lt;/span&gt;" style="rounded=0;whiteSpace=wrap;html=1;fillColor=#1ba1e2;strokeColor=#006EAF;fontColor=#ffffff;fontStyle=1" vertex="1" parent="vXHMGScjWEvyBzevYoSc-1">
          <mxGeometry x="160" y="120" width="150" height="30" as="geometry" />
        </mxCell>
        <mxCell id="CrEuyEGJAIZcOUbDi2vm-0" value="&lt;span&gt;物理机1&lt;/span&gt;" style="text;html=1;strokeColor=none;fillColor=none;align=center;verticalAlign=middle;whiteSpace=wrap;rounded=0;fontStyle=1" vertex="1" parent="vXHMGScjWEvyBzevYoSc-1">
          <mxGeometry x="160" y="10" width="50" height="20" as="geometry" />
        </mxCell>
        <mxCell id="CrEuyEGJAIZcOUbDi2vm-3" value="&lt;span&gt;ES-Master&lt;/span&gt;" style="rounded=0;whiteSpace=wrap;html=1;fontStyle=1" vertex="1" parent="vXHMGScjWEvyBzevYoSc-1">
          <mxGeometry x="430" y="60" width="150" height="30" as="geometry" />
        </mxCell>
        <mxCell id="CrEuyEGJAIZcOUbDi2vm-4" value="&lt;span style=&quot;&quot;&gt;Logstash&lt;/span&gt;" style="rounded=0;whiteSpace=wrap;html=1;fontStyle=1" vertex="1" parent="vXHMGScjWEvyBzevYoSc-1">
          <mxGeometry x="430" y="120" width="150" height="30" as="geometry" />
        </mxCell>
        <mxCell id="CrEuyEGJAIZcOUbDi2vm-5" value="物理机1" style="text;html=1;strokeColor=none;fillColor=none;align=center;verticalAlign=middle;whiteSpace=wrap;rounded=0;fontStyle=1" vertex="1" parent="vXHMGScjWEvyBzevYoSc-1">
          <mxGeometry x="430" y="10" width="50" height="20" as="geometry" />
        </mxCell>
        <mxCell id="CrEuyEGJAIZcOUbDi2vm-6" value="" style="rounded=1;whiteSpace=wrap;html=1;fillColor=#d0cee2;strokeColor=#56517e;fontStyle=1" vertex="1" parent="vXHMGScjWEvyBzevYoSc-1">
          <mxGeometry x="400" y="-10" width="210" height="200" as="geometry" />
        </mxCell>
        <mxCell id="CrEuyEGJAIZcOUbDi2vm-7" value="&lt;span&gt;ES-Master-02&lt;/span&gt;" style="rounded=0;whiteSpace=wrap;html=1;fillColor=#1ba1e2;strokeColor=#006EAF;fontColor=#ffffff;fontStyle=1" vertex="1" parent="vXHMGScjWEvyBzevYoSc-1">
          <mxGeometry x="430" y="60" width="150" height="30" as="geometry" />
        </mxCell>
        <mxCell id="CrEuyEGJAIZcOUbDi2vm-8" value="&lt;span style=&quot;&quot;&gt;Mariadb&lt;/span&gt;" style="rounded=0;whiteSpace=wrap;html=1;fillColor=#1ba1e2;strokeColor=#006EAF;fontColor=#ffffff;fontStyle=1" vertex="1" parent="vXHMGScjWEvyBzevYoSc-1">
          <mxGeometry x="430" y="120" width="150" height="30" as="geometry" />
        </mxCell>
        <mxCell id="CrEuyEGJAIZcOUbDi2vm-9" value="物理机2" style="text;html=1;strokeColor=none;fillColor=none;align=center;verticalAlign=middle;whiteSpace=wrap;rounded=0;fontStyle=1" vertex="1" parent="vXHMGScjWEvyBzevYoSc-1">
          <mxGeometry x="430" y="10" width="50" height="20" as="geometry" />
        </mxCell>
        <mxCell id="CrEuyEGJAIZcOUbDi2vm-10" value="" style="rounded=1;whiteSpace=wrap;html=1;fillColor=#d0cee2;strokeColor=#56517e;fontStyle=1" vertex="1" parent="vXHMGScjWEvyBzevYoSc-1">
          <mxGeometry x="660" y="-10" width="220" height="200" as="geometry" />
        </mxCell>
        <mxCell id="CrEuyEGJAIZcOUbDi2vm-11" value="&lt;span&gt;ES-Master-03&lt;/span&gt;" style="rounded=0;whiteSpace=wrap;html=1;fillColor=#1ba1e2;strokeColor=#006EAF;fontColor=#ffffff;fontStyle=1" vertex="1" parent="vXHMGScjWEvyBzevYoSc-1">
          <mxGeometry x="690" y="60" width="150" height="30" as="geometry" />
        </mxCell>
        <mxCell id="CrEuyEGJAIZcOUbDi2vm-12" value="&lt;span style=&quot;&quot;&gt;管理门户&lt;/span&gt;" style="rounded=0;whiteSpace=wrap;html=1;fillColor=#1ba1e2;strokeColor=#006EAF;fontColor=#ffffff;fontStyle=1" vertex="1" parent="vXHMGScjWEvyBzevYoSc-1">
          <mxGeometry x="690" y="100" width="150" height="30" as="geometry" />
        </mxCell>
        <mxCell id="CrEuyEGJAIZcOUbDi2vm-13" value="物理机3" style="text;html=1;strokeColor=none;fillColor=none;align=center;verticalAlign=middle;whiteSpace=wrap;rounded=0;fontStyle=1" vertex="1" parent="vXHMGScjWEvyBzevYoSc-1">
          <mxGeometry x="690" y="10" width="50" height="20" as="geometry" />
        </mxCell>
        <mxCell id="eRStXw8ammm37wl4E13g-0" value="&lt;span style=&quot;&quot;&gt;同步程序&lt;/span&gt;" style="rounded=0;whiteSpace=wrap;html=1;fillColor=#1ba1e2;strokeColor=#006EAF;fontColor=#ffffff;fontStyle=1" vertex="1" parent="vXHMGScjWEvyBzevYoSc-1">
          <mxGeometry x="690" y="140" width="150" height="30" as="geometry" />
        </mxCell>
        <mxCell id="eRStXw8ammm37wl4E13g-1" value="" style="rounded=1;whiteSpace=wrap;html=1;fillColor=#b1ddf0;strokeColor=#10739e;fontStyle=1" vertex="1" parent="vXHMGScjWEvyBzevYoSc-1">
          <mxGeometry x="130" y="250" width="210" height="100" as="geometry" />
        </mxCell>
        <mxCell id="eRStXw8ammm37wl4E13g-2" value="&lt;span&gt;ES-Data Node-01&lt;/span&gt;" style="rounded=0;whiteSpace=wrap;html=1;fontStyle=1;fillColor=#fad9d5;strokeColor=#ae4132;" vertex="1" parent="vXHMGScjWEvyBzevYoSc-1">
          <mxGeometry x="160" y="300" width="150" height="30" as="geometry" />
        </mxCell>
        <mxCell id="eRStXw8ammm37wl4E13g-3" value="物理机4" style="text;html=1;strokeColor=none;fillColor=none;align=center;verticalAlign=middle;whiteSpace=wrap;rounded=0;fontStyle=1" vertex="1" parent="vXHMGScjWEvyBzevYoSc-1">
          <mxGeometry x="150" y="260" width="50" height="20" as="geometry" />
        </mxCell>
        <mxCell id="eRStXw8ammm37wl4E13g-4" value="" style="rounded=1;whiteSpace=wrap;html=1;fillColor=#b1ddf0;strokeColor=#10739e;fontStyle=1" vertex="1" parent="vXHMGScjWEvyBzevYoSc-1">
          <mxGeometry x="400" y="250" width="210" height="100" as="geometry" />
        </mxCell>
        <mxCell id="eRStXw8ammm37wl4E13g-5" value="&lt;span&gt;ES-Data Node-02&lt;/span&gt;" style="rounded=0;whiteSpace=wrap;html=1;fontStyle=1;fillColor=#fad9d5;strokeColor=#ae4132;" vertex="1" parent="vXHMGScjWEvyBzevYoSc-1">
          <mxGeometry x="430" y="300" width="140" height="30" as="geometry" />
        </mxCell>
        <mxCell id="eRStXw8ammm37wl4E13g-6" value="物理机5" style="text;html=1;strokeColor=none;fillColor=none;align=center;verticalAlign=middle;whiteSpace=wrap;rounded=0;fontStyle=1" vertex="1" parent="vXHMGScjWEvyBzevYoSc-1">
          <mxGeometry x="420" y="260" width="50" height="20" as="geometry" />
        </mxCell>
        <mxCell id="eRStXw8ammm37wl4E13g-7" value="" style="rounded=1;whiteSpace=wrap;html=1;fillColor=#b1ddf0;strokeColor=#10739e;fontStyle=1" vertex="1" parent="vXHMGScjWEvyBzevYoSc-1">
          <mxGeometry x="670" y="250" width="210" height="100" as="geometry" />
        </mxCell>
        <mxCell id="eRStXw8ammm37wl4E13g-8" value="&lt;span&gt;ES-Data Node-03&lt;/span&gt;" style="rounded=0;whiteSpace=wrap;html=1;fontStyle=1;fillColor=#fad9d5;strokeColor=#ae4132;" vertex="1" parent="vXHMGScjWEvyBzevYoSc-1">
          <mxGeometry x="700" y="300" width="150" height="30" as="geometry" />
        </mxCell>
        <mxCell id="eRStXw8ammm37wl4E13g-9" value="物理机6" style="text;html=1;strokeColor=none;fillColor=none;align=center;verticalAlign=middle;whiteSpace=wrap;rounded=0;fontStyle=1" vertex="1" parent="vXHMGScjWEvyBzevYoSc-1">
          <mxGeometry x="690" y="260" width="50" height="20" as="geometry" />
        </mxCell>
        <mxCell id="eRStXw8ammm37wl4E13g-10" value="8核 * 64G&amp;nbsp; &amp;nbsp;6T" style="text;html=1;strokeColor=none;fillColor=none;align=center;verticalAlign=middle;whiteSpace=wrap;rounded=0;fontStyle=1" vertex="1" parent="vXHMGScjWEvyBzevYoSc-1">
          <mxGeometry x="220" y="260" width="90" height="20" as="geometry" />
        </mxCell>
        <mxCell id="eRStXw8ammm37wl4E13g-11" value="8核 * 64G&amp;nbsp; &amp;nbsp;6T" style="text;html=1;align=center;verticalAlign=middle;whiteSpace=wrap;rounded=0;fontStyle=1" vertex="1" parent="vXHMGScjWEvyBzevYoSc-1">
          <mxGeometry x="480" y="260" width="90" height="20" as="geometry" />
        </mxCell>
        <mxCell id="eRStXw8ammm37wl4E13g-12" value="8核 * 64G&amp;nbsp; &amp;nbsp;6T" style="text;html=1;strokeColor=none;fillColor=none;align=center;verticalAlign=middle;whiteSpace=wrap;rounded=0;fontStyle=1" vertex="1" parent="vXHMGScjWEvyBzevYoSc-1">
          <mxGeometry x="760" y="260" width="90" height="20" as="geometry" />
        </mxCell>
        <mxCell id="eRStXw8ammm37wl4E13g-14" value="8核 * 16G&amp;nbsp; &amp;nbsp;300G" style="text;html=1;strokeColor=none;fillColor=none;align=center;verticalAlign=middle;whiteSpace=wrap;rounded=0;fontStyle=1" vertex="1" parent="vXHMGScjWEvyBzevYoSc-1">
          <mxGeometry x="220" y="10" width="100" height="20" as="geometry" />
        </mxCell>
        <mxCell id="eRStXw8ammm37wl4E13g-15" value="8核 * 16G&amp;nbsp; &amp;nbsp;300G" style="text;html=1;strokeColor=none;fillColor=none;align=center;verticalAlign=middle;whiteSpace=wrap;rounded=0;fontStyle=1" vertex="1" parent="vXHMGScjWEvyBzevYoSc-1">
          <mxGeometry x="490" y="10" width="100" height="20" as="geometry" />
        </mxCell>
        <mxCell id="eRStXw8ammm37wl4E13g-16" value="8核 * 16G&amp;nbsp; &amp;nbsp;300G" style="text;html=1;strokeColor=none;fillColor=none;align=center;verticalAlign=middle;whiteSpace=wrap;rounded=0;fontStyle=1" vertex="1" parent="vXHMGScjWEvyBzevYoSc-1">
          <mxGeometry x="755" y="10" width="100" height="20" as="geometry" />
        </mxCell>
        <mxCell id="eRStXw8ammm37wl4E13g-19" value="迭代二项目部署架构图" style="text;html=1;strokeColor=none;fillColor=none;align=center;verticalAlign=middle;whiteSpace=wrap;rounded=0;fontSize=16;fontStyle=1" vertex="1" parent="vXHMGScjWEvyBzevYoSc-1">
          <mxGeometry x="130" y="-70" width="230" height="20" as="geometry" />
        </mxCell>
      </root>
    </mxGraphModel>
  </diagram>
  <diagram name="Page-1" id="822b0af5-4adb-64df-f703-e8dfc1f81529">
    <mxGraphModel dx="1221" dy="578" grid="1" gridSize="10" guides="1" tooltips="1" connect="1" arrows="1" fold="1" page="1" pageScale="1" pageWidth="1100" pageHeight="850" background="none" math="0" shadow="0">
      <root>
        <mxCell id="0" />
        <mxCell id="1" parent="0" />
        <mxCell id="7d933b09d9755ecc-14" value="Resource forest" style="triangle;whiteSpace=wrap;html=1;rounded=0;shadow=0;comic=0;strokeWidth=1;fontFamily=Verdana;direction=north;labelPosition=center;verticalLabelPosition=bottom;align=center;verticalAlign=top;" parent="1" vertex="1">
          <mxGeometry x="830" y="230" width="530" height="537" as="geometry" />
        </mxCell>
        <mxCell id="7d933b09d9755ecc-12" value="User forest" style="triangle;whiteSpace=wrap;html=1;rounded=0;shadow=0;comic=0;strokeWidth=1;fontFamily=Verdana;direction=north;labelPosition=center;verticalLabelPosition=bottom;align=center;verticalAlign=top;" parent="1" vertex="1">
          <mxGeometry x="400" y="92" width="286" height="340" as="geometry" />
        </mxCell>
        <mxCell id="7d933b09d9755ecc-13" value="" style="ellipse;whiteSpace=wrap;html=1;rounded=0;shadow=0;comic=0;strokeWidth=1;fontFamily=Verdana;" parent="1" vertex="1">
          <mxGeometry x="473" y="326" width="142" height="94" as="geometry" />
        </mxCell>
        <mxCell id="7d933b09d9755ecc-4" value="" style="verticalLabelPosition=bottom;aspect=fixed;html=1;verticalAlign=top;strokeColor=none;shape=mxgraph.citrix.directory_server;rounded=0;shadow=0;comic=0;fontFamily=Verdana;" parent="1" vertex="1">
          <mxGeometry x="1063" y="64" width="65" height="88.5" as="geometry" />
        </mxCell>
        <mxCell id="7d933b09d9755ecc-5" value="" style="verticalLabelPosition=bottom;aspect=fixed;html=1;verticalAlign=top;strokeColor=none;shape=mxgraph.citrix.file_server;rounded=0;shadow=0;comic=0;fontFamily=Verdana;" parent="1" vertex="1">
          <mxGeometry x="1053" y="611" width="71" height="97" as="geometry" />
        </mxCell>
        <mxCell id="7d933b09d9755ecc-6" value="Users" style="verticalLabelPosition=bottom;aspect=fixed;html=1;verticalAlign=top;strokeColor=none;shape=mxgraph.citrix.users;rounded=0;shadow=0;comic=0;fontFamily=Verdana;" parent="1" vertex="1">
          <mxGeometry x="511" y="339" width="64.5" height="55" as="geometry" />
        </mxCell>
        <mxCell id="7d933b09d9755ecc-9" value="" style="verticalLabelPosition=bottom;aspect=fixed;html=1;verticalAlign=top;strokeColor=none;shape=mxgraph.citrix.tower_server;rounded=0;shadow=0;comic=0;fontFamily=Verdana;" parent="1" vertex="1">
          <mxGeometry x="511" y="193" width="65" height="85" as="geometry" />
        </mxCell>
        <mxCell id="7d933b09d9755ecc-15" value="" style="ellipse;whiteSpace=wrap;html=1;rounded=0;shadow=0;comic=0;strokeWidth=1;fontFamily=Verdana;" parent="1" vertex="1">
          <mxGeometry x="979" y="440" width="220" height="140" as="geometry" />
        </mxCell>
        <mxCell id="7d933b09d9755ecc-16" value="Disabled users" style="verticalLabelPosition=bottom;aspect=fixed;html=1;verticalAlign=top;strokeColor=none;shape=mxgraph.citrix.users;rounded=0;shadow=0;comic=0;fontFamily=Verdana;" parent="1" vertex="1">
          <mxGeometry x="1060" y="477" width="64.5" height="55" as="geometry" />
        </mxCell>
        <mxCell id="7d933b09d9755ecc-17" value="" style="verticalLabelPosition=bottom;aspect=fixed;html=1;verticalAlign=top;strokeColor=none;shape=mxgraph.citrix.tower_server;rounded=0;shadow=0;comic=0;fontFamily=Verdana;" parent="1" vertex="1">
          <mxGeometry x="1060" y="331" width="65" height="85" as="geometry" />
        </mxCell>
        <mxCell id="7d933b09d9755ecc-18" value="User forest" style="triangle;whiteSpace=wrap;html=1;rounded=0;shadow=0;comic=0;strokeWidth=1;fontFamily=Verdana;direction=north;labelPosition=center;verticalLabelPosition=bottom;align=center;verticalAlign=top;" parent="1" vertex="1">
          <mxGeometry x="1580" y="76" width="286" height="340" as="geometry" />
        </mxCell>
        <mxCell id="7d933b09d9755ecc-19" value="" style="ellipse;whiteSpace=wrap;html=1;rounded=0;shadow=0;comic=0;strokeWidth=1;fontFamily=Verdana;" parent="1" vertex="1">
          <mxGeometry x="1653" y="310" width="142" height="90" as="geometry" />
        </mxCell>
        <mxCell id="7d933b09d9755ecc-20" value="Users" style="verticalLabelPosition=bottom;aspect=fixed;html=1;verticalAlign=top;strokeColor=none;shape=mxgraph.citrix.users;rounded=0;shadow=0;comic=0;fontFamily=Verdana;" parent="1" vertex="1">
          <mxGeometry x="1691" y="323" width="64.5" height="55" as="geometry" />
        </mxCell>
        <mxCell id="7d933b09d9755ecc-21" value="" style="verticalLabelPosition=bottom;aspect=fixed;html=1;verticalAlign=top;strokeColor=none;shape=mxgraph.citrix.tower_server;rounded=0;shadow=0;comic=0;fontFamily=Verdana;" parent="1" vertex="1">
          <mxGeometry x="1691" y="177" width="65" height="85" as="geometry" />
        </mxCell>
        <mxCell id="7d933b09d9755ecc-22" style="rounded=0;html=1;labelBackgroundColor=none;startArrow=none;startFill=0;endArrow=block;endFill=1;strokeColor=#0000FF;strokeWidth=1;fontFamily=Verdana;fontSize=12" parent="1" source="7d933b09d9755ecc-19" target="7d933b09d9755ecc-15" edge="1">
          <mxGeometry relative="1" as="geometry" />
        </mxCell>
        <mxCell id="7d933b09d9755ecc-23" style="rounded=0;html=1;labelBackgroundColor=none;startArrow=none;startFill=0;endArrow=block;endFill=1;strokeColor=#0000FF;strokeWidth=1;fontFamily=Verdana;fontSize=12" parent="1" source="7d933b09d9755ecc-13" target="7d933b09d9755ecc-15" edge="1">
          <mxGeometry relative="1" as="geometry" />
        </mxCell>
        <mxCell id="7d933b09d9755ecc-24" style="edgeStyle=none;rounded=0;html=1;exitX=0.5;exitY=1;labelBackgroundColor=none;startArrow=none;startFill=0;endArrow=block;endFill=1;strokeColor=#0000FF;strokeWidth=1;fontFamily=Verdana;fontSize=12;fontColor=#000000;" parent="1" source="7d933b09d9755ecc-15" target="7d933b09d9755ecc-5" edge="1">
          <mxGeometry relative="1" as="geometry" />
        </mxCell>
        <mxCell id="7d933b09d9755ecc-25" value="Trust relationship" style="html=1;labelBackgroundColor=none;startArrow=none;startFill=0;endArrow=block;endFill=1;strokeColor=#FF0000;strokeWidth=1;fontFamily=Verdana;fontSize=12;entryX=1;entryY=0.5;curved=1;" parent="1" target="7d933b09d9755ecc-18" edge="1">
          <mxGeometry x="-0.0165" y="-10" relative="1" as="geometry">
            <mxPoint x="1095" y="230" as="sourcePoint" />
            <mxPoint x="1530" y="240" as="targetPoint" />
            <Array as="points">
              <mxPoint x="1400" y="110" />
            </Array>
            <mxPoint as="offset" />
          </mxGeometry>
        </mxCell>
        <mxCell id="7d933b09d9755ecc-26" value="Trust relationship" style="html=1;entryX=1;entryY=0.5;labelBackgroundColor=none;startArrow=none;startFill=0;endArrow=block;endFill=1;strokeColor=#FF0000;strokeWidth=1;fontFamily=Verdana;fontSize=12;curved=1;" parent="1" target="7d933b09d9755ecc-12" edge="1">
          <mxGeometry x="-0.0644" y="45" relative="1" as="geometry">
            <mxPoint x="1095" y="230" as="sourcePoint" />
            <Array as="points">
              <mxPoint x="920" y="120" />
            </Array>
            <mxPoint as="offset" />
          </mxGeometry>
        </mxCell>
        <mxCell id="7d933b09d9755ecc-27" value="Synchronization" style="rounded=0;html=1;entryX=0.878;entryY=0.433;entryPerimeter=0;labelBackgroundColor=none;startArrow=none;startFill=0;endArrow=block;endFill=1;strokeWidth=1;fontFamily=Verdana;fontSize=12" parent="1" source="7d933b09d9755ecc-4" target="7d933b09d9755ecc-18" edge="1">
          <mxGeometry x="-0.3348" y="21" relative="1" as="geometry">
            <mxPoint as="offset" />
          </mxGeometry>
        </mxCell>
        <mxCell id="7d933b09d9755ecc-28" value="Synchronization" style="edgeStyle=none;rounded=0;html=1;labelBackgroundColor=none;startArrow=none;startFill=0;endArrow=block;endFill=1;strokeWidth=1;fontFamily=Verdana;fontSize=12" parent="1" source="7d933b09d9755ecc-4" target="7d933b09d9755ecc-14" edge="1">
          <mxGeometry x="-0.2966" relative="1" as="geometry">
            <mxPoint as="offset" />
          </mxGeometry>
        </mxCell>
        <mxCell id="7d933b09d9755ecc-29" value="Synchronization" style="edgeStyle=none;rounded=0;html=1;entryX=0.912;entryY=0.559;entryPerimeter=0;labelBackgroundColor=none;startArrow=none;startFill=0;endArrow=block;endFill=1;strokeWidth=1;fontFamily=Verdana;fontSize=12" parent="1" source="7d933b09d9755ecc-4" target="7d933b09d9755ecc-12" edge="1">
          <mxGeometry x="-0.1948" y="-14" relative="1" as="geometry">
            <mxPoint as="offset" />
          </mxGeometry>
        </mxCell>
        <mxCell id="7d933b09d9755ecc-31" value="User forest" style="triangle;whiteSpace=wrap;html=1;rounded=0;shadow=0;comic=0;strokeWidth=1;fontFamily=Verdana;direction=north;labelPosition=center;verticalLabelPosition=bottom;align=center;verticalAlign=top;" parent="1" vertex="1">
          <mxGeometry x="483" y="477" width="286" height="340" as="geometry" />
        </mxCell>
        <mxCell id="7d933b09d9755ecc-32" value="" style="ellipse;whiteSpace=wrap;html=1;rounded=0;shadow=0;comic=0;strokeWidth=1;fontFamily=Verdana;" parent="1" vertex="1">
          <mxGeometry x="556" y="711" width="142" height="89" as="geometry" />
        </mxCell>
        <mxCell id="7d933b09d9755ecc-33" value="Users" style="verticalLabelPosition=bottom;aspect=fixed;html=1;verticalAlign=top;strokeColor=none;shape=mxgraph.citrix.users;rounded=0;shadow=0;comic=0;fontFamily=Verdana;" parent="1" vertex="1">
          <mxGeometry x="594" y="724" width="64.5" height="55" as="geometry" />
        </mxCell>
        <mxCell id="7d933b09d9755ecc-34" value="" style="verticalLabelPosition=bottom;aspect=fixed;html=1;verticalAlign=top;strokeColor=none;shape=mxgraph.citrix.tower_server;rounded=0;shadow=0;comic=0;fontFamily=Verdana;" parent="1" vertex="1">
          <mxGeometry x="594" y="578" width="65" height="85" as="geometry" />
        </mxCell>
        <mxCell id="7d933b09d9755ecc-35" value="User forest" style="triangle;whiteSpace=wrap;html=1;rounded=0;shadow=0;comic=0;strokeWidth=1;fontFamily=Verdana;direction=north;labelPosition=center;verticalLabelPosition=bottom;align=center;verticalAlign=top;" parent="1" vertex="1">
          <mxGeometry x="1405" y="460" width="286" height="340" as="geometry" />
        </mxCell>
        <mxCell id="7d933b09d9755ecc-36" value="" style="ellipse;whiteSpace=wrap;html=1;rounded=0;shadow=0;comic=0;strokeWidth=1;fontFamily=Verdana;" parent="1" vertex="1">
          <mxGeometry x="1478" y="694" width="142" height="96" as="geometry" />
        </mxCell>
        <mxCell id="7d933b09d9755ecc-37" value="Users" style="verticalLabelPosition=bottom;aspect=fixed;html=1;verticalAlign=top;strokeColor=none;shape=mxgraph.citrix.users;rounded=0;shadow=0;comic=0;fontFamily=Verdana;" parent="1" vertex="1">
          <mxGeometry x="1516" y="707" width="64.5" height="55" as="geometry" />
        </mxCell>
        <mxCell id="7d933b09d9755ecc-38" value="" style="verticalLabelPosition=bottom;aspect=fixed;html=1;verticalAlign=top;strokeColor=none;shape=mxgraph.citrix.tower_server;rounded=0;shadow=0;comic=0;fontFamily=Verdana;" parent="1" vertex="1">
          <mxGeometry x="1516" y="561" width="65" height="85" as="geometry" />
        </mxCell>
        <mxCell id="7d933b09d9755ecc-39" style="edgeStyle=none;rounded=0;html=1;exitX=1;exitY=0.5;labelBackgroundColor=none;startFill=0;endArrow=block;endFill=1;strokeColor=#0000FF;strokeWidth=1;fontFamily=Verdana;fontSize=12;" parent="1" source="7d933b09d9755ecc-32" target="7d933b09d9755ecc-15" edge="1">
          <mxGeometry relative="1" as="geometry" />
        </mxCell>
        <mxCell id="7d933b09d9755ecc-40" style="edgeStyle=none;rounded=0;html=1;exitX=0;exitY=0.5;labelBackgroundColor=none;startFill=0;endArrow=block;endFill=1;strokeColor=#0000FF;strokeWidth=1;fontFamily=Verdana;fontSize=12;" parent="1" source="7d933b09d9755ecc-36" target="7d933b09d9755ecc-15" edge="1">
          <mxGeometry relative="1" as="geometry" />
        </mxCell>
        <mxCell id="7d933b09d9755ecc-41" value="Trust relationship" style="html=1;exitX=1;exitY=0.5;labelBackgroundColor=none;startFill=0;endArrow=block;endFill=1;strokeColor=#FF0000;strokeWidth=1;fontFamily=Verdana;fontSize=12;entryX=1;entryY=0.5;curved=1;" parent="1" source="7d933b09d9755ecc-14" target="7d933b09d9755ecc-31" edge="1">
          <mxGeometry x="0.0622" relative="1" as="geometry">
            <mxPoint x="660" y="490" as="targetPoint" />
            <Array as="points">
              <mxPoint x="890" y="270" />
            </Array>
            <mxPoint as="offset" />
          </mxGeometry>
        </mxCell>
        <mxCell id="7d933b09d9755ecc-42" value="Trust relationship" style="html=1;exitX=1;exitY=0.5;entryX=1;entryY=0.5;labelBackgroundColor=none;startFill=0;endArrow=block;endFill=1;strokeColor=#FF0000;strokeWidth=1;fontFamily=Verdana;fontSize=12;curved=1;" parent="1" source="7d933b09d9755ecc-14" target="7d933b09d9755ecc-35" edge="1">
          <mxGeometry x="0.3227" y="10" relative="1" as="geometry">
            <Array as="points">
              <mxPoint x="1380" y="290" />
            </Array>
            <mxPoint as="offset" />
          </mxGeometry>
        </mxCell>
        <mxCell id="7d933b09d9755ecc-43" value="Synchronization" style="edgeStyle=none;rounded=0;html=1;entryX=0.653;entryY=0.304;entryPerimeter=0;labelBackgroundColor=none;startFill=0;endArrow=block;endFill=1;strokeWidth=1;fontFamily=Verdana;fontSize=12;" parent="1" source="7d933b09d9755ecc-4" target="7d933b09d9755ecc-35" edge="1">
          <mxGeometry relative="1" as="geometry" />
        </mxCell>
        <mxCell id="7d933b09d9755ecc-44" value="Synchronization" style="edgeStyle=none;rounded=0;html=1;entryX=0.544;entryY=0.766;entryPerimeter=0;labelBackgroundColor=none;startFill=0;endArrow=block;endFill=1;strokeWidth=1;fontFamily=Verdana;fontSize=12;" parent="1" source="7d933b09d9755ecc-4" target="7d933b09d9755ecc-31" edge="1">
          <mxGeometry x="-0.1797" y="19" relative="1" as="geometry">
            <mxPoint as="offset" />
          </mxGeometry>
        </mxCell>
      </root>
    </mxGraphModel>
  </diagram>
  <diagram id="XgOZEIuFJ6VeXkqJFGJQ" name="Page-2">
    <mxGraphModel dx="1038" dy="491" grid="1" gridSize="10" guides="1" tooltips="1" connect="1" arrows="1" fold="1" page="1" pageScale="1" pageWidth="827" pageHeight="1169" math="0" shadow="0">
      <root>
        <mxCell id="OSJbsxX_gD4lW0AlWqMr-0" />
        <mxCell id="OSJbsxX_gD4lW0AlWqMr-1" parent="OSJbsxX_gD4lW0AlWqMr-0" />
        <mxCell id="OSJbsxX_gD4lW0AlWqMr-3" value="data Node" style="verticalLabelPosition=bottom;aspect=fixed;html=1;verticalAlign=top;strokeColor=none;align=center;outlineConnect=0;shape=mxgraph.citrix.database_server;fontStyle=1" vertex="1" parent="OSJbsxX_gD4lW0AlWqMr-1">
          <mxGeometry x="490" y="70" width="80" height="90" as="geometry" />
        </mxCell>
        <mxCell id="OSJbsxX_gD4lW0AlWqMr-4" value="data Node" style="verticalLabelPosition=bottom;aspect=fixed;html=1;verticalAlign=top;strokeColor=none;align=center;outlineConnect=0;shape=mxgraph.citrix.database_server;fontStyle=1" vertex="1" parent="OSJbsxX_gD4lW0AlWqMr-1">
          <mxGeometry x="500" y="210" width="80" height="90" as="geometry" />
        </mxCell>
        <mxCell id="OSJbsxX_gD4lW0AlWqMr-5" value="data Node" style="verticalLabelPosition=bottom;aspect=fixed;html=1;verticalAlign=top;strokeColor=none;align=center;outlineConnect=0;shape=mxgraph.citrix.database_server;fontStyle=1" vertex="1" parent="OSJbsxX_gD4lW0AlWqMr-1">
          <mxGeometry x="500" y="340" width="80" height="90" as="geometry" />
        </mxCell>
        <mxCell id="OSJbsxX_gD4lW0AlWqMr-9" value="" style="verticalLabelPosition=bottom;aspect=fixed;html=1;verticalAlign=top;strokeColor=none;align=center;outlineConnect=0;shape=mxgraph.citrix.directory_server;fontStyle=1" vertex="1" parent="OSJbsxX_gD4lW0AlWqMr-1">
          <mxGeometry x="187.5" y="61.5" width="65" height="88.5" as="geometry" />
        </mxCell>
        <mxCell id="OSJbsxX_gD4lW0AlWqMr-10" value="master Node&lt;br&gt;" style="text;html=1;align=center;verticalAlign=middle;resizable=0;points=[];autosize=1;strokeColor=none;fontStyle=1" vertex="1" parent="OSJbsxX_gD4lW0AlWqMr-1">
          <mxGeometry x="175" y="150" width="90" height="20" as="geometry" />
        </mxCell>
        <mxCell id="OSJbsxX_gD4lW0AlWqMr-11" value="" style="verticalLabelPosition=bottom;aspect=fixed;html=1;verticalAlign=top;strokeColor=none;align=center;outlineConnect=0;shape=mxgraph.citrix.directory_server;fontStyle=1" vertex="1" parent="OSJbsxX_gD4lW0AlWqMr-1">
          <mxGeometry x="187.5" y="200" width="65" height="88.5" as="geometry" />
        </mxCell>
        <mxCell id="OSJbsxX_gD4lW0AlWqMr-12" value="master Node" style="text;html=1;align=center;verticalAlign=middle;resizable=0;points=[];autosize=1;strokeColor=none;fontStyle=1" vertex="1" parent="OSJbsxX_gD4lW0AlWqMr-1">
          <mxGeometry x="175" y="288.5" width="90" height="20" as="geometry" />
        </mxCell>
        <mxCell id="OSJbsxX_gD4lW0AlWqMr-13" value="" style="verticalLabelPosition=bottom;aspect=fixed;html=1;verticalAlign=top;strokeColor=none;align=center;outlineConnect=0;shape=mxgraph.citrix.directory_server;fontStyle=1" vertex="1" parent="OSJbsxX_gD4lW0AlWqMr-1">
          <mxGeometry x="187.5" y="331.5" width="65" height="88.5" as="geometry" />
        </mxCell>
        <mxCell id="OSJbsxX_gD4lW0AlWqMr-14" value="master Node" style="text;html=1;align=center;verticalAlign=middle;resizable=0;points=[];autosize=1;strokeColor=none;fontStyle=1" vertex="1" parent="OSJbsxX_gD4lW0AlWqMr-1">
          <mxGeometry x="175" y="420" width="90" height="20" as="geometry" />
        </mxCell>
        <mxCell id="OSJbsxX_gD4lW0AlWqMr-26" value="" style="swimlane;html=1;childLayout=stackLayout;resizeParent=1;resizeParentMax=0;horizontal=0;startSize=20;horizontalStack=0;" vertex="1" parent="OSJbsxX_gD4lW0AlWqMr-1">
          <mxGeometry x="50" y="215.63" width="110" height="40" as="geometry" />
        </mxCell>
        <mxCell id="OSJbsxX_gD4lW0AlWqMr-27" value="" style="swimlane;html=1;startSize=20;horizontal=0;" vertex="1" parent="OSJbsxX_gD4lW0AlWqMr-26">
          <mxGeometry x="20" width="90" height="20" as="geometry" />
        </mxCell>
        <mxCell id="OSJbsxX_gD4lW0AlWqMr-28" value="&lt;b&gt;ES-Master&lt;/b&gt;" style="text;html=1;align=center;verticalAlign=middle;resizable=0;points=[];autosize=1;strokeColor=none;" vertex="1" parent="OSJbsxX_gD4lW0AlWqMr-27">
          <mxGeometry x="20" width="70" height="20" as="geometry" />
        </mxCell>
        <mxCell id="OSJbsxX_gD4lW0AlWqMr-29" value="" style="swimlane;html=1;startSize=20;horizontal=0;" vertex="1" parent="OSJbsxX_gD4lW0AlWqMr-26">
          <mxGeometry x="20" y="20" width="90" height="20" as="geometry" />
        </mxCell>
        <mxCell id="OSJbsxX_gD4lW0AlWqMr-16" value="Mariadb" style="text;html=1;align=center;verticalAlign=middle;resizable=0;points=[];autosize=1;strokeColor=none;fontStyle=1" vertex="1" parent="OSJbsxX_gD4lW0AlWqMr-29">
          <mxGeometry x="20" width="60" height="20" as="geometry" />
        </mxCell>
        <mxCell id="OSJbsxX_gD4lW0AlWqMr-31" value="" style="swimlane;html=1;startSize=20;horizontal=0;" vertex="1" parent="OSJbsxX_gD4lW0AlWqMr-26">
          <mxGeometry x="20" y="40" width="90" as="geometry" />
        </mxCell>
        <mxCell id="OSJbsxX_gD4lW0AlWqMr-32" value="管理门户" style="text;html=1;align=center;verticalAlign=middle;resizable=0;points=[];autosize=1;strokeColor=none;fontStyle=1" vertex="1" parent="OSJbsxX_gD4lW0AlWqMr-1">
          <mxGeometry x="90" y="357.13" width="60" height="20" as="geometry" />
        </mxCell>
        <mxCell id="OSJbsxX_gD4lW0AlWqMr-33" value="" style="swimlane;html=1;childLayout=stackLayout;resizeParent=1;resizeParentMax=0;horizontal=0;startSize=20;horizontalStack=0;" vertex="1" parent="OSJbsxX_gD4lW0AlWqMr-1">
          <mxGeometry x="50" y="337.13" width="110" height="60" as="geometry" />
        </mxCell>
        <mxCell id="OSJbsxX_gD4lW0AlWqMr-34" value="" style="swimlane;html=1;startSize=20;horizontal=0;" vertex="1" parent="OSJbsxX_gD4lW0AlWqMr-33">
          <mxGeometry x="20" width="90" height="20" as="geometry" />
        </mxCell>
        <mxCell id="OSJbsxX_gD4lW0AlWqMr-35" value="&lt;b&gt;ES-Master&lt;/b&gt;" style="text;html=1;align=center;verticalAlign=middle;resizable=0;points=[];autosize=1;strokeColor=none;" vertex="1" parent="OSJbsxX_gD4lW0AlWqMr-34">
          <mxGeometry x="20" width="70" height="20" as="geometry" />
        </mxCell>
        <mxCell id="OSJbsxX_gD4lW0AlWqMr-36" value="" style="swimlane;html=1;startSize=20;horizontal=0;" vertex="1" parent="OSJbsxX_gD4lW0AlWqMr-33">
          <mxGeometry x="20" y="20" width="90" height="20" as="geometry" />
        </mxCell>
        <mxCell id="OSJbsxX_gD4lW0AlWqMr-37" value="" style="swimlane;html=1;startSize=20;horizontal=0;" vertex="1" parent="OSJbsxX_gD4lW0AlWqMr-33">
          <mxGeometry x="20" y="40" width="90" height="20" as="geometry" />
        </mxCell>
        <mxCell id="OSJbsxX_gD4lW0AlWqMr-39" value="&lt;b&gt;stash程序&lt;/b&gt;" style="text;html=1;align=center;verticalAlign=middle;resizable=0;points=[];autosize=1;strokeColor=none;" vertex="1" parent="OSJbsxX_gD4lW0AlWqMr-37">
          <mxGeometry x="20" width="70" height="20" as="geometry" />
        </mxCell>
        <mxCell id="OSJbsxX_gD4lW0AlWqMr-38" value="" style="swimlane;html=1;startSize=20;horizontal=0;" vertex="1" parent="OSJbsxX_gD4lW0AlWqMr-33">
          <mxGeometry x="20" y="60" width="90" as="geometry" />
        </mxCell>
        <mxCell id="OSJbsxX_gD4lW0AlWqMr-40" value="" style="swimlane;html=1;childLayout=stackLayout;resizeParent=1;resizeParentMax=0;horizontal=0;startSize=20;horizontalStack=0;" vertex="1" parent="OSJbsxX_gD4lW0AlWqMr-1">
          <mxGeometry x="50" y="91.38" width="110" height="40" as="geometry" />
        </mxCell>
        <mxCell id="OSJbsxX_gD4lW0AlWqMr-41" value="" style="swimlane;html=1;startSize=20;horizontal=0;" vertex="1" parent="OSJbsxX_gD4lW0AlWqMr-40">
          <mxGeometry x="20" width="90" height="20" as="geometry" />
        </mxCell>
        <mxCell id="OSJbsxX_gD4lW0AlWqMr-42" value="&lt;b&gt;ES-Master&lt;/b&gt;" style="text;html=1;align=center;verticalAlign=middle;resizable=0;points=[];autosize=1;strokeColor=none;" vertex="1" parent="OSJbsxX_gD4lW0AlWqMr-41">
          <mxGeometry x="20" width="70" height="20" as="geometry" />
        </mxCell>
        <mxCell id="OSJbsxX_gD4lW0AlWqMr-43" value="" style="swimlane;html=1;startSize=20;horizontal=0;" vertex="1" parent="OSJbsxX_gD4lW0AlWqMr-40">
          <mxGeometry x="20" y="20" width="90" height="20" as="geometry" />
        </mxCell>
        <mxCell id="OSJbsxX_gD4lW0AlWqMr-44" value="Logstash" style="text;html=1;align=center;verticalAlign=middle;resizable=0;points=[];autosize=1;strokeColor=none;fontStyle=1" vertex="1" parent="OSJbsxX_gD4lW0AlWqMr-43">
          <mxGeometry x="15" width="70" height="20" as="geometry" />
        </mxCell>
        <mxCell id="OSJbsxX_gD4lW0AlWqMr-45" value="" style="swimlane;html=1;startSize=20;horizontal=0;" vertex="1" parent="OSJbsxX_gD4lW0AlWqMr-40">
          <mxGeometry x="20" y="40" width="90" as="geometry" />
        </mxCell>
      </root>
    </mxGraphModel>
  </diagram>
</mxfile>
